HIERARCHY
ROOT Hips
{
	OFFSET	0.00	0.00	0.00
	CHANNELS 6 Xposition Yposition Zposition Zrotation Xrotation Yrotation
	JOINT LeftUpLeg
	{
		OFFSET	 0.126116	-0.065224	 0.014019
		CHANNELS 3 Zrotation Xrotation Yrotation
		JOINT LeftLeg
		{
			OFFSET	 0.000000	 0.569914	 0.000000
			CHANNELS 3 Zrotation Xrotation Yrotation
			JOINT LeftFoot
			{
				OFFSET	 0.000000	 0.544423	 0.000000
				CHANNELS 3 Zrotation Xrotation Yrotation
				JOINT LeftToeBase
				{
					OFFSET	 0.000000	 0.207117	 0.000000
					CHANNELS 3 Zrotation Xrotation Yrotation
					End Site
					{
						OFFSET	 0.000000	 0.207117	 0.000000
					}
				}
			}
		}
	}
	JOINT RightUpLeg
	{
		OFFSET	-0.124023	-0.065224	 0.008373
		CHANNELS 3 Zrotation Xrotation Yrotation
		JOINT RightLeg
		{
			OFFSET	 0.000000	 0.570047	 0.000000
			CHANNELS 3 Zrotation Xrotation Yrotation
			JOINT RightFoot
			{
				OFFSET	 0.000000	 0.544354	 0.000000
				CHANNELS 3 Zrotation Xrotation Yrotation
				JOINT RightToeBase
				{
					OFFSET	 0.000000	 0.207540	 0.000000
					CHANNELS 3 Zrotation Xrotation Yrotation
					End Site
					{
						OFFSET	 0.000000	 0.207540	 0.000000
					}
				}
			}
		}
	}
	JOINT Spine
	{
		OFFSET	 0.000184	 0.117403	 0.007763
		CHANNELS 3 Zrotation Xrotation Yrotation
		JOINT Spine1
		{
			OFFSET	 0.000000	 0.137269	 0.000000
			CHANNELS 3 Zrotation Xrotation Yrotation
			JOINT Spine2
			{
				OFFSET	 0.000000	 0.156879	 0.000000
				CHANNELS 3 Zrotation Xrotation Yrotation
				JOINT LeftShoulder
				{
					OFFSET	 0.080501	 0.160143	 0.002496
					CHANNELS 3 Zrotation Xrotation Yrotation
					JOINT LeftArm
					{
						OFFSET	 0.000000	 0.164363	 0.000000
						CHANNELS 3 Zrotation Xrotation Yrotation
						JOINT LeftForeArm
						{
							OFFSET	 0.000000	 0.364576	 0.000000
							CHANNELS 3 Zrotation Xrotation Yrotation
							JOINT LeftHand
							{
								OFFSET	 0.000000	 0.360812	 0.000000
								CHANNELS 3 Zrotation Xrotation Yrotation
								JOINT LeftHandIndex1
								{
									OFFSET	 0.000000	 0.086006	 0.000000
									CHANNELS 3 Zrotation Xrotation Yrotation
									JOINT LeftHandIndex2
									{
										OFFSET	 0.000000	 0.047237	 0.000000
										CHANNELS 3 Zrotation Xrotation Yrotation
										JOINT LeftHandIndex3
										{
											OFFSET	-0.004284	 0.038165	 0.000551
											CHANNELS 3 Zrotation Xrotation Yrotation
											End Site
											{
												OFFSET	-0.004284	 0.038165	 0.000551
											}
										}
									}
								}
							}
						}
					}
				}
				JOINT Neck
				{
					OFFSET	 0.000000	 0.176489	 0.000000
					CHANNELS 3 Zrotation Xrotation Yrotation
					JOINT Head
					{
						OFFSET	 0.000000	 0.077941	 0.001747
						CHANNELS 3 Zrotation Xrotation Yrotation
						End Site
						{
							OFFSET	 0.000000	 0.077941	 0.001747
						}
					}
				}
				JOINT RightShoulder
				{
					OFFSET	-0.080363	 0.159706	-0.000306
					CHANNELS 3 Zrotation Xrotation Yrotation
					JOINT RightArm
					{
						OFFSET	 0.000000	 0.164196	 0.000000
						CHANNELS 3 Zrotation Xrotation Yrotation
						JOINT RightForeArm
						{
							OFFSET	 0.000000	 0.365611	 0.000000
							CHANNELS 3 Zrotation Xrotation Yrotation
							JOINT RightHand
							{
								OFFSET	 0.000000	 0.360648	 0.000000
								CHANNELS 3 Zrotation Xrotation Yrotation
								JOINT RightHandIndex1
								{
									OFFSET	 0.000000	 0.069977	 0.000000
									CHANNELS 3 Zrotation Xrotation Yrotation
									JOINT RightHandIndex2
									{
										OFFSET	 0.000000	 0.052305	 0.000000
										CHANNELS 3 Zrotation Xrotation Yrotation
										JOINT RightHandIndex3
										{
											OFFSET	 0.009002	 0.042196	 0.000782
											CHANNELS 3 Zrotation Xrotation Yrotation
											End Site
											{
												OFFSET	 0.009002	 0.042196	 0.000782
											}
										}
									}
								}
							}
						}
					}
				}
			}
		}
	}
}
MOTION
Frames:    8
Frame Time: 0.03333334
-0.044198	 1.233618	-1.250399	-4.019039	 1.419595	-174.026400	 174.237900	 7.608719	-15.860860	 4.319199	-29.422750	 6.198525	 7.710479	 80.604190	-0.313320	 1.517583	 31.306200	-2.814155	 167.005600	 26.570390	 20.291880	-5.961913	-53.986480	 6.233656	 6.103837	 72.545470	-4.710029	-1.670842	 33.164930	 2.887341	-1.346986	 8.696567	 6.499944	-4.376396	 1.786122	 4.021410	 4.547523	-3.257182	-14.882440	-121.357100	 7.489496	 94.068240	 6.881184	 40.697650	 4.674129	 29.172190	-1.443759	 0.324721	 15.288390	 12.013110	 27.932060	 4.632695	 18.884480	-1.659509	-5.863878	 21.495390	 2.376379	 5.332582	 4.364700	-0.168590	-0.169578	-5.015193	-0.139151	-2.082020	-2.463548	-6.709942	 118.414700	-0.052183	-90.808090	-1.420391	 47.407330	-3.777625	-5.015487	-0.196273	 0.017346	-1.298215	 6.296296	 20.217080	-2.407208	 25.762740	 1.319773	 15.796770	 44.757210	-11.754280	-8.529897	 23.759860	-1.212300
-0.043676	 1.231445	-1.280622	-4.008303	 0.929294	-173.604400	 174.300500	 6.407001	-15.357320	 4.253186	-29.228400	 6.539109	 10.827910	 81.644590	-3.778441	 1.547400	 31.675460	-2.828291	 167.628400	 19.528580	 20.707390	-5.913290	-53.875420	 6.697368	 53.074650	 85.263180	-47.390610	-1.683820	 33.319800	 2.893852	-1.689679	 7.307220	 6.539031	-8.185280	-14.639910	 2.646848	 6.782239	 4.991778	-15.074440	-121.348100	 7.859100	 94.251840	-8.950654	 43.375460	 16.306120	 32.090950	-1.567542	 0.584106	 17.643410	 12.081790	 30.818060	 4.680494	 19.041060	-1.685056	-5.863475	 21.632960	 2.391569	 5.338488	 4.503076	-0.166083	-0.176332	-5.046622	-0.108064	-1.950242	-2.468265	-6.701922	 118.363600	-0.270205	-90.705880	 9.857892	 48.273220	-11.706370	-5.086440	-0.194381	-0.165323	 3.748183	 8.202458	 17.465370	-2.236087	 24.474740	 1.229769	 15.482900	 43.499600	-11.263790	-8.533607	 22.467040	-1.126644
-0.042038	 1.240366	-1.334828	-3.700060	 1.986216	-173.106200	 174.632100	-0.767014	-14.573030	 3.135240	-22.422690	 6.613812	 13.139760	 80.304380	-6.842477	 1.587378	 32.166190	-2.847517	 171.745600	-1.505539	 20.053050	-3.492184	-39.010070	 9.123488	 158.817400	 77.079700	-147.068200	-1.701137	 33.525600	 2.902589	-3.534630	-2.445027	 6.578553	-9.833613	-25.119880	 1.782850	 7.702269	 10.311740	-15.299590	-121.337900	 8.350338	 94.495980	-40.945590	 38.274570	 40.348620	 43.508030	-2.024925	 1.187770	 18.562990	 12.119570	 34.369100	 4.744202	 19.249120	-1.719259	-5.863002	 21.815780	 2.411777	 5.346330	 4.686969	-0.162772	-0.185281	-5.088395	-0.066755	-1.779190	-2.516030	-6.655769	 118.296200	-0.560075	-90.570350	 29.609310	 46.542620	-26.258510	-5.229560	-0.193807	-0.408160	 10.736620	 9.922509	 13.601500	-2.014549	 22.761870	 1.117921	 15.097680	 41.824690	-10.641130	-8.535291	 20.748150	-1.014072
-0.039630	 1.256787	-1.377328	-3.411485	 6.137636	-173.007100	 174.705600	-15.586240	-13.972450	 0.672971	-5.063854	 6.476103	 11.673350	 73.073320	-5.987756	 1.619763	 32.560040	-2.863317	 178.662200	-31.073010	 21.249440	-0.373802	-4.958700	 11.009200	 158.635900	 77.255840	-144.348900	-1.715093	 33.690780	 2.909670	-4.738234	-9.215376	 6.336249	-9.813719	-27.114200	 2.145328	 7.816797	 11.953160	-15.054360	-121.331300	 8.744641	 94.692080	-60.520110	 26.257810	 54.422940	 53.924960	-2.373058	 1.786191	 20.064030	 10.553890	 35.522840	 4.795487	 19.416090	-1.746918	-5.862672	 21.962520	 2.428015	 5.352618	 4.834563	-0.160133	-0.192442	-5.121925	-0.033603	-1.638062	-2.494005	-6.544735	 118.242600	-0.792850	-90.461780	 42.844390	 43.390640	-35.978990	-5.368769	-0.194300	-0.602951	 16.082050	 11.023460	 10.465000	-1.841254	 21.386660	 1.034264	 14.812840	 40.478080	-10.163440	-8.534038	 19.368360	-0.924639
-0.038856	 1.263597	-1.390875	-3.287183	 8.308926	-172.937300	 175.196400	-18.454530	-13.663070	 0.666780	-5.017508	 6.647966	 13.677100	 73.475670	-8.347162	 1.632082	 32.709010	-2.869380	 179.616200	-36.165640	 21.406050	-0.360999	-4.789675	 11.309140	 167.045800	 72.018070	-150.566800	-1.720385	 33.753260	 2.912364	-4.968534	-10.538420	 5.890865	-9.561540	-27.510410	 2.249077	 7.703331	 12.886430	-14.513440	-121.329100	 8.893776	 94.766290	-65.213410	 21.701800	 57.852750	 56.563110	-2.448328	 1.971586	 20.924970	 8.577863	 35.081370	 4.814921	 19.479230	-1.757429	-5.862559	 22.018020	 2.434161	 5.354995	 4.890388	-0.159139	-0.195146	-5.134609	-0.021064	-1.577817	-2.377872	-6.384578	 118.222500	-0.880912	-90.420790	 46.381050	 42.448660	-38.568410	-5.409853	-0.194014	-0.676443	 18.543300	 11.386650	 8.187379	-1.776695	 20.866490	 1.003988	 14.710410	 39.968340	-9.987530	-8.532974	 18.846530	-0.891003
-0.038875	 1.263368	-1.390377	-3.232985	 8.408311	-172.960300	 175.251700	-18.531730	-13.652630	 0.667011	-5.019243	 6.648635	 13.787320	 73.455770	-8.461220	 1.632129	 32.709580	-2.869404	 179.662300	-36.252690	 21.420470	-0.361110	-4.791118	 11.310320	 166.936200	 72.003580	-150.446700	-1.720405	 33.753500	 2.912374	-4.831360	-10.361070	 5.315363	-9.145384	-27.656060	 2.173155	 7.429037	 13.750250	-13.691070	-121.329100	 8.894358	 94.766590	-64.441340	 22.455210	 57.321090	 55.599510	-2.420584	 1.930554	 20.091120	 6.992674	 34.054600	 4.814995	 19.479470	-1.757469	-5.862558	 22.018230	 2.434184	 5.355004	 4.890600	-0.159135	-0.195156	-5.134656	-0.021017	-1.566259	-2.190335	-6.162780	 118.222400	-0.881257	-90.420640	 45.786580	 43.027400	-38.235840	-5.387338	-0.193124	-0.676702	 19.680420	 11.272880	 5.979456	-1.776452	 20.864520	 1.003875	 14.710030	 39.966400	-9.986867	-8.532969	 18.844550	-0.890875
-0.039682	 1.256609	-1.376667	-3.218115	 6.583405	-173.060400	 174.930400	-16.004360	-13.918890	 0.673351	-5.066741	 6.487387	 12.109310	 73.043110	-6.455472	 1.620567	 32.569790	-2.863713	 178.887900	-31.646760	 21.314410	-0.373281	-4.951876	 11.027870	 158.804300	 76.912940	-144.370400	-1.715438	 33.694860	 2.909845	-4.321813	-8.745366	 4.495245	-8.474917	-27.612700	 1.894781	 6.919588	 14.646410	-12.434660	-121.331100	 8.754382	 94.696950	-58.113830	 28.109650	 52.817510	 51.079410	-2.283474	 1.674276	 17.525390	 5.560176	 32.088480	 4.796757	 19.420220	-1.747604	-5.862664	 21.966150	 2.428417	 5.352773	 4.838213	-0.160068	-0.192619	-5.122754	-0.032783	-1.600337	-1.917570	-5.840189	 118.241300	-0.798600	-90.459100	 41.097170	 45.002470	-34.951480	-5.301264	-0.191530	-0.607497	 19.600360	 10.740830	 3.446935	-1.837017	 21.352650	 1.032262	 14.806060	 40.444760	-10.151860	-8.533979	 19.334240	-0.922437
-0.041345	 1.245101	-1.348369	-3.252621	 3.642566	-173.148100	 175.133200	-4.827172	-14.265870	 2.603205	-18.914780	 6.586907	 14.444390	 79.012210	-8.461211	 1.598847	 32.306050	-2.853089	 174.144100	-11.577420	 20.102400	-2.340283	-28.504450	 9.984720	 159.183300	 76.145110	-146.320000	-1.706087	 33.584260	 2.905096	-3.369096	-4.447063	 3.369003	-7.531315	-27.028070	 1.374255	 6.136514	 15.329460	-10.763600	-121.335400	 8.490356	 94.565600	-43.186000	 37.148970	 42.172440	 42.110570	-1.969763	 1.207643	 14.493990	 3.909786	 28.508190	 4.762396	 19.308410	-1.729059	-5.862880	 21.867890	 2.417542	 5.348563	 4.739379	-0.161833	-0.187826	-5.100300	-0.054982	-1.676772	-1.592197	-5.427282	 118.277100	-0.642722	-90.531770	 31.097510	 47.848340	-27.616190	-5.169299	-0.189663	-0.476982	 17.920540	 9.985965	 0.773834	-1.952569	 22.273560	 1.087606	 14.994150	 41.346710	-10.469350	-8.535109	 20.258180	-0.982227
